<mxfile host="app.diagrams.net" modified="2023-10-06T23:58:24.402Z" agent="Mozilla/5.0 (Windows NT 10.0; Win64; x64) AppleWebKit/537.36 (KHTML, like Gecko) Chrome/117.0.0.0 Safari/537.36" etag="Xh54Ytbs5cwmxaUm8RXZ" version="22.0.3" type="github">
  <diagram name="Page-1" id="YuBeRZbOVfp11ciUyUZ7">
    <mxGraphModel dx="706" dy="1519" grid="1" gridSize="10" guides="1" tooltips="1" connect="1" arrows="1" fold="1" page="1" pageScale="1" pageWidth="850" pageHeight="1100" math="0" shadow="0">
      <root>
        <mxCell id="0" />
        <mxCell id="1" parent="0" />
        <mxCell id="zVQwK2bRlb4D7HLoGmaH-1" value="" style="whiteSpace=wrap;html=1;aspect=fixed;" vertex="1" parent="1">
          <mxGeometry x="207.5" y="30" width="370" height="370" as="geometry" />
        </mxCell>
        <mxCell id="zVQwK2bRlb4D7HLoGmaH-2" value="Online Bidding System Auction Page" style="text;html=1;strokeColor=#6c8ebf;fillColor=#dae8fc;align=center;verticalAlign=middle;whiteSpace=wrap;rounded=0;fontStyle=1" vertex="1" parent="1">
          <mxGeometry x="225.5" y="40" width="215" height="30" as="geometry" />
        </mxCell>
        <mxCell id="zVQwK2bRlb4D7HLoGmaH-3" value="View customer details" style="ellipse;whiteSpace=wrap;html=1;" vertex="1" parent="1">
          <mxGeometry x="272.5" y="140" width="115" height="60" as="geometry" />
        </mxCell>
        <mxCell id="zVQwK2bRlb4D7HLoGmaH-4" value="View Product Details" style="ellipse;whiteSpace=wrap;html=1;" vertex="1" parent="1">
          <mxGeometry x="268.75" y="210" width="98.75" height="50" as="geometry" />
        </mxCell>
        <mxCell id="zVQwK2bRlb4D7HLoGmaH-5" value="View Bidding Details" style="ellipse;whiteSpace=wrap;html=1;" vertex="1" parent="1">
          <mxGeometry x="287.5" y="270" width="110" height="50" as="geometry" />
        </mxCell>
        <mxCell id="zVQwK2bRlb4D7HLoGmaH-6" value="Admin" style="shape=umlActor;verticalLabelPosition=bottom;verticalAlign=top;html=1;outlineConnect=0;" vertex="1" parent="1">
          <mxGeometry x="40" y="150" width="30" height="70" as="geometry" />
        </mxCell>
        <mxCell id="zVQwK2bRlb4D7HLoGmaH-7" value="" style="endArrow=none;html=1;rounded=0;entryX=0;entryY=0.5;entryDx=0;entryDy=0;exitX=0;exitY=0.5;exitDx=0;exitDy=0;" edge="1" parent="1" source="zVQwK2bRlb4D7HLoGmaH-4" target="zVQwK2bRlb4D7HLoGmaH-3">
          <mxGeometry width="50" height="50" relative="1" as="geometry">
            <mxPoint x="290" y="280" as="sourcePoint" />
            <mxPoint x="340" y="230" as="targetPoint" />
            <Array as="points">
              <mxPoint x="67.5" y="180" />
            </Array>
          </mxGeometry>
        </mxCell>
        <mxCell id="zVQwK2bRlb4D7HLoGmaH-8" value="" style="endArrow=none;html=1;rounded=0;" edge="1" parent="1">
          <mxGeometry width="50" height="50" relative="1" as="geometry">
            <mxPoint x="277.5" y="350" as="sourcePoint" />
            <mxPoint x="67.5" y="180" as="targetPoint" />
            <Array as="points">
              <mxPoint x="277.5" y="350" />
            </Array>
          </mxGeometry>
        </mxCell>
        <mxCell id="zVQwK2bRlb4D7HLoGmaH-9" value="Register/Login" style="ellipse;whiteSpace=wrap;html=1;" vertex="1" parent="1">
          <mxGeometry x="237.5" y="80" width="110" height="50" as="geometry" />
        </mxCell>
        <mxCell id="zVQwK2bRlb4D7HLoGmaH-10" value="" style="endArrow=none;html=1;rounded=0;" edge="1" parent="1">
          <mxGeometry width="50" height="50" relative="1" as="geometry">
            <mxPoint x="240" y="110" as="sourcePoint" />
            <mxPoint x="67.5" y="180" as="targetPoint" />
            <Array as="points">
              <mxPoint x="240" y="110" />
            </Array>
          </mxGeometry>
        </mxCell>
        <mxCell id="zVQwK2bRlb4D7HLoGmaH-11" value="Manage auction" style="ellipse;whiteSpace=wrap;html=1;" vertex="1" parent="1">
          <mxGeometry x="268.75" y="340" width="120" height="50" as="geometry" />
        </mxCell>
        <mxCell id="zVQwK2bRlb4D7HLoGmaH-12" value="" style="endArrow=none;html=1;rounded=0;exitX=0.035;exitY=0.651;exitDx=0;exitDy=0;exitPerimeter=0;" edge="1" parent="1" source="zVQwK2bRlb4D7HLoGmaH-5">
          <mxGeometry width="50" height="50" relative="1" as="geometry">
            <mxPoint x="268.75" y="330" as="sourcePoint" />
            <mxPoint x="68.75" y="180" as="targetPoint" />
            <Array as="points" />
          </mxGeometry>
        </mxCell>
        <mxCell id="zVQwK2bRlb4D7HLoGmaH-13" value="&lt;p style=&quot;margin:0px;margin-top:4px;text-align:center;&quot;&gt;&lt;i&gt;seller&lt;/i&gt;&lt;/p&gt;&lt;hr size=&quot;1&quot;&gt;&lt;p style=&quot;margin:0px;margin-left:4px;&quot;&gt;-sellerID: int&lt;/p&gt;&lt;p style=&quot;margin:0px;margin-left:4px;&quot;&gt;-email: string&lt;/p&gt;&lt;p style=&quot;margin:0px;margin-left:4px;&quot;&gt;-password: string&lt;/p&gt;&lt;p style=&quot;margin:0px;margin-left:4px;&quot;&gt;-fullName: string&lt;br&gt;&lt;/p&gt;&lt;hr size=&quot;1&quot;&gt;&lt;p style=&quot;margin:0px;margin-left:4px;&quot;&gt;+ Register()&lt;/p&gt;&lt;p style=&quot;margin:0px;margin-left:4px;&quot;&gt;+login ()&lt;/p&gt;&lt;p style=&quot;margin:0px;margin-left:4px;&quot;&gt;+ Create Auction()&lt;/p&gt;&lt;p style=&quot;margin:0px;margin-left:4px;&quot;&gt;+BrowseCatalog()&lt;/p&gt;&lt;p style=&quot;margin:0px;margin-left:4px;&quot;&gt;+Manage Auction()&lt;/p&gt;&lt;p style=&quot;margin:0px;margin-left:4px;&quot;&gt;&lt;br&gt;&lt;/p&gt;" style="verticalAlign=top;align=left;overflow=fill;fontSize=12;fontFamily=Helvetica;html=1;whiteSpace=wrap;" vertex="1" parent="1">
          <mxGeometry x="295" y="550" width="140" height="200" as="geometry" />
        </mxCell>
        <mxCell id="zVQwK2bRlb4D7HLoGmaH-14" value="&lt;p style=&quot;margin:0px;margin-top:4px;text-align:center;&quot;&gt;&lt;b&gt;Product&lt;/b&gt;&lt;/p&gt;&lt;hr size=&quot;1&quot;&gt;&lt;p style=&quot;margin:0px;margin-left:4px;&quot;&gt;- ProductID: int&lt;/p&gt;&lt;p style=&quot;margin:0px;margin-left:4px;&quot;&gt;- name: string&lt;/p&gt;&lt;p style=&quot;margin:0px;margin-left:4px;&quot;&gt;- Description: string&lt;/p&gt;&lt;p style=&quot;margin:0px;margin-left:4px;&quot;&gt;-startingBid: float&lt;/p&gt;&lt;p style=&quot;margin:0px;margin-left:4px;&quot;&gt;- endDate: datetime&lt;/p&gt;&lt;p style=&quot;margin:0px;margin-left:4px;&quot;&gt;- seller: Seller&lt;/p&gt;&lt;p style=&quot;margin:0px;margin-left:4px;&quot;&gt;&lt;br&gt;&lt;/p&gt;&lt;p style=&quot;margin:0px;margin-left:4px;&quot;&gt;&lt;br&gt;&lt;/p&gt;&lt;hr size=&quot;1&quot;&gt;&lt;p style=&quot;margin:0px;margin-left:4px;&quot;&gt;+ method(): Type&lt;/p&gt;" style="verticalAlign=top;align=left;overflow=fill;fontSize=12;fontFamily=Helvetica;html=1;whiteSpace=wrap;" vertex="1" parent="1">
          <mxGeometry x="505" y="560" width="130" height="140" as="geometry" />
        </mxCell>
        <mxCell id="zVQwK2bRlb4D7HLoGmaH-15" value="&lt;p style=&quot;margin:0px;margin-top:4px;text-align:center;&quot;&gt;&lt;i&gt;Buyer&lt;/i&gt;&lt;/p&gt;&lt;hr size=&quot;1&quot;&gt;&lt;p style=&quot;margin:0px;margin-left:4px;&quot;&gt;-buyerID: int&lt;/p&gt;&lt;p style=&quot;margin:0px;margin-left:4px;&quot;&gt;-email: string&lt;/p&gt;&lt;p style=&quot;margin:0px;margin-left:4px;&quot;&gt;-password: string&lt;/p&gt;&lt;p style=&quot;margin:0px;margin-left:4px;&quot;&gt;-fullName: string&lt;br&gt;&lt;/p&gt;&lt;hr size=&quot;1&quot;&gt;&lt;p style=&quot;margin:0px;margin-left:4px;&quot;&gt;+ Register()&lt;/p&gt;&lt;p style=&quot;margin:0px;margin-left:4px;&quot;&gt;+login ()&lt;/p&gt;&lt;p style=&quot;margin:0px;margin-left:4px;&quot;&gt;+ PlaceBidAuction()&lt;/p&gt;&lt;p style=&quot;margin:0px;margin-left:4px;&quot;&gt;+BrowseCatalog()&lt;/p&gt;&lt;p style=&quot;margin:0px;margin-left:4px;&quot;&gt;+MakePayement()&lt;/p&gt;&lt;p style=&quot;margin:0px;margin-left:4px;&quot;&gt;&lt;br&gt;&lt;/p&gt;" style="verticalAlign=top;align=left;overflow=fill;fontSize=12;fontFamily=Helvetica;html=1;whiteSpace=wrap;" vertex="1" parent="1">
          <mxGeometry x="290" y="820" width="160" height="180" as="geometry" />
        </mxCell>
        <mxCell id="zVQwK2bRlb4D7HLoGmaH-16" value="&lt;p style=&quot;margin:0px;margin-top:4px;text-align:center;&quot;&gt;&lt;i&gt;Admin&lt;/i&gt;&lt;/p&gt;&lt;hr size=&quot;1&quot;&gt;&lt;p style=&quot;margin:0px;margin-left:4px;&quot;&gt;-AdminID: int&lt;/p&gt;&lt;p style=&quot;margin:0px;margin-left:4px;&quot;&gt;-email: string&lt;/p&gt;&lt;p style=&quot;margin:0px;margin-left:4px;&quot;&gt;-password: string&lt;/p&gt;&lt;p style=&quot;margin:0px;margin-left:4px;&quot;&gt;-fullName: string&lt;br&gt;&lt;/p&gt;&lt;hr size=&quot;1&quot;&gt;&lt;p style=&quot;margin:0px;margin-left:4px;&quot;&gt;+ Register()&lt;/p&gt;&lt;p style=&quot;margin:0px;margin-left:4px;&quot;&gt;+login ()&lt;/p&gt;&lt;p style=&quot;margin:0px;margin-left:4px;&quot;&gt;+ Manage Auctions&lt;span style=&quot;background-color: initial;&quot;&gt;()&lt;/span&gt;&lt;/p&gt;&lt;p style=&quot;margin:0px;margin-left:4px;&quot;&gt;&lt;span style=&quot;background-color: initial;&quot;&gt;+ View customer Details&lt;/span&gt;&lt;/p&gt;&lt;p style=&quot;margin:0px;margin-left:4px;&quot;&gt;&lt;span style=&quot;background-color: initial;&quot;&gt;View products Details&lt;/span&gt;&lt;/p&gt;&lt;p style=&quot;margin:0px;margin-left:4px;&quot;&gt;&lt;span style=&quot;background-color: initial;&quot;&gt;+ View bidding details&lt;/span&gt;&lt;/p&gt;&lt;p style=&quot;margin:0px;margin-left:4px;&quot;&gt;&lt;br&gt;&lt;/p&gt;" style="verticalAlign=top;align=left;overflow=fill;fontSize=12;fontFamily=Helvetica;html=1;whiteSpace=wrap;" vertex="1" parent="1">
          <mxGeometry x="55" y="550" width="180" height="200" as="geometry" />
        </mxCell>
        <mxCell id="zVQwK2bRlb4D7HLoGmaH-17" value="" style="endArrow=none;html=1;rounded=0;" edge="1" parent="1">
          <mxGeometry relative="1" as="geometry">
            <mxPoint x="235" y="649.5" as="sourcePoint" />
            <mxPoint x="295" y="650" as="targetPoint" />
            <Array as="points">
              <mxPoint x="265" y="649.5" />
            </Array>
          </mxGeometry>
        </mxCell>
        <mxCell id="zVQwK2bRlb4D7HLoGmaH-18" value="1" style="resizable=0;html=1;whiteSpace=wrap;align=left;verticalAlign=bottom;" connectable="0" vertex="1" parent="zVQwK2bRlb4D7HLoGmaH-17">
          <mxGeometry x="-1" relative="1" as="geometry" />
        </mxCell>
        <mxCell id="zVQwK2bRlb4D7HLoGmaH-19" value="1..*" style="resizable=0;html=1;whiteSpace=wrap;align=right;verticalAlign=bottom;" connectable="0" vertex="1" parent="zVQwK2bRlb4D7HLoGmaH-17">
          <mxGeometry x="1" relative="1" as="geometry" />
        </mxCell>
        <mxCell id="zVQwK2bRlb4D7HLoGmaH-20" value="" style="endArrow=none;html=1;rounded=0;" edge="1" parent="1">
          <mxGeometry relative="1" as="geometry">
            <mxPoint x="435" y="640" as="sourcePoint" />
            <mxPoint x="505" y="640" as="targetPoint" />
            <Array as="points" />
          </mxGeometry>
        </mxCell>
        <mxCell id="zVQwK2bRlb4D7HLoGmaH-21" value="1" style="resizable=0;html=1;whiteSpace=wrap;align=left;verticalAlign=bottom;" connectable="0" vertex="1" parent="zVQwK2bRlb4D7HLoGmaH-20">
          <mxGeometry x="-1" relative="1" as="geometry">
            <mxPoint as="offset" />
          </mxGeometry>
        </mxCell>
        <mxCell id="zVQwK2bRlb4D7HLoGmaH-22" value="1..*" style="resizable=0;html=1;whiteSpace=wrap;align=right;verticalAlign=bottom;" connectable="0" vertex="1" parent="zVQwK2bRlb4D7HLoGmaH-20">
          <mxGeometry x="1" relative="1" as="geometry">
            <mxPoint as="offset" />
          </mxGeometry>
        </mxCell>
        <mxCell id="zVQwK2bRlb4D7HLoGmaH-23" value="" style="endArrow=none;html=1;rounded=0;exitX=0.667;exitY=1;exitDx=0;exitDy=0;exitPerimeter=0;" edge="1" parent="1" source="zVQwK2bRlb4D7HLoGmaH-16" target="zVQwK2bRlb4D7HLoGmaH-15">
          <mxGeometry relative="1" as="geometry">
            <mxPoint x="315" y="790.0012060958563" as="sourcePoint" />
            <mxPoint x="335" y="841" as="targetPoint" />
            <Array as="points" />
          </mxGeometry>
        </mxCell>
        <mxCell id="zVQwK2bRlb4D7HLoGmaH-24" value="&lt;p style=&quot;margin:0px;margin-top:4px;text-align:center;&quot;&gt;&lt;b&gt;Payment&lt;/b&gt;&lt;/p&gt;&lt;hr size=&quot;1&quot;&gt;&lt;p style=&quot;margin:0px;margin-left:4px;&quot;&gt;&amp;nbsp;-paymentID: int&lt;/p&gt;&lt;p style=&quot;margin:0px;margin-left:4px;&quot;&gt;-name: string&amp;nbsp;&lt;/p&gt;&lt;p style=&quot;margin:0px;margin-left:4px;&quot;&gt;-Amount: float&lt;/p&gt;&lt;p style=&quot;margin:0px;margin-left:4px;&quot;&gt;-status: string&lt;/p&gt;&lt;p style=&quot;margin:0px;margin-left:4px;&quot;&gt;&lt;br&gt;&lt;/p&gt;&lt;p style=&quot;margin:0px;margin-left:4px;&quot;&gt;+ processPayment()&lt;/p&gt;&lt;hr size=&quot;1&quot;&gt;&lt;p style=&quot;margin:0px;margin-left:4px;&quot;&gt;&lt;br&gt;&lt;/p&gt;" style="verticalAlign=top;align=left;overflow=fill;fontSize=12;fontFamily=Helvetica;html=1;whiteSpace=wrap;" vertex="1" parent="1">
          <mxGeometry x="675" y="572.5" width="120" height="127.5" as="geometry" />
        </mxCell>
        <mxCell id="zVQwK2bRlb4D7HLoGmaH-25" value="1..*" style="resizable=0;html=1;whiteSpace=wrap;align=right;verticalAlign=bottom;" connectable="0" vertex="1" parent="1">
          <mxGeometry x="285" y="820" as="geometry" />
        </mxCell>
        <mxCell id="zVQwK2bRlb4D7HLoGmaH-26" value="1" style="resizable=0;html=1;whiteSpace=wrap;align=left;verticalAlign=bottom;" connectable="0" vertex="1" parent="1">
          <mxGeometry x="195" y="770" as="geometry" />
        </mxCell>
        <mxCell id="zVQwK2bRlb4D7HLoGmaH-27" value="" style="endArrow=none;html=1;rounded=0;" edge="1" parent="1">
          <mxGeometry relative="1" as="geometry">
            <mxPoint x="635" y="640" as="sourcePoint" />
            <mxPoint x="675" y="640" as="targetPoint" />
            <Array as="points" />
          </mxGeometry>
        </mxCell>
        <mxCell id="zVQwK2bRlb4D7HLoGmaH-28" value="1" style="resizable=0;html=1;whiteSpace=wrap;align=left;verticalAlign=bottom;" connectable="0" vertex="1" parent="zVQwK2bRlb4D7HLoGmaH-27">
          <mxGeometry x="-1" relative="1" as="geometry">
            <mxPoint as="offset" />
          </mxGeometry>
        </mxCell>
        <mxCell id="zVQwK2bRlb4D7HLoGmaH-29" value="1" style="resizable=0;html=1;whiteSpace=wrap;align=left;verticalAlign=bottom;" connectable="0" vertex="1" parent="1">
          <mxGeometry x="665" y="640" as="geometry" />
        </mxCell>
        <mxCell id="zVQwK2bRlb4D7HLoGmaH-30" value="" style="line;strokeWidth=1;fillColor=none;align=left;verticalAlign=middle;spacingTop=-1;spacingLeft=3;spacingRight=3;rotatable=0;labelPosition=right;points=[];portConstraint=eastwest;strokeColor=inherit;" vertex="1" parent="1">
          <mxGeometry x="675" y="670" width="120" height="10" as="geometry" />
        </mxCell>
        <mxCell id="zVQwK2bRlb4D7HLoGmaH-31" value="" style="endArrow=none;html=1;rounded=0;entryX=0.385;entryY=1;entryDx=0;entryDy=0;entryPerimeter=0;exitX=1;exitY=0.25;exitDx=0;exitDy=0;" edge="1" parent="1" source="zVQwK2bRlb4D7HLoGmaH-15" target="zVQwK2bRlb4D7HLoGmaH-14">
          <mxGeometry relative="1" as="geometry">
            <mxPoint x="450" y="850" as="sourcePoint" />
            <mxPoint x="520" y="850" as="targetPoint" />
            <Array as="points" />
          </mxGeometry>
        </mxCell>
        <mxCell id="zVQwK2bRlb4D7HLoGmaH-32" value="1" style="resizable=0;html=1;whiteSpace=wrap;align=left;verticalAlign=bottom;" connectable="0" vertex="1" parent="zVQwK2bRlb4D7HLoGmaH-31">
          <mxGeometry x="-1" relative="1" as="geometry">
            <mxPoint x="5" y="-25" as="offset" />
          </mxGeometry>
        </mxCell>
        <mxCell id="zVQwK2bRlb4D7HLoGmaH-33" value="1..*" style="resizable=0;html=1;whiteSpace=wrap;align=right;verticalAlign=bottom;" connectable="0" vertex="1" parent="zVQwK2bRlb4D7HLoGmaH-31">
          <mxGeometry x="1" relative="1" as="geometry">
            <mxPoint x="-20" y="20" as="offset" />
          </mxGeometry>
        </mxCell>
        <mxCell id="zVQwK2bRlb4D7HLoGmaH-34" value="&lt;p style=&quot;margin:0px;margin-top:4px;text-align:center;&quot;&gt;&lt;i&gt;seller1&lt;/i&gt;&lt;/p&gt;&lt;hr size=&quot;1&quot;&gt;&lt;p style=&quot;margin:0px;margin-left:4px;&quot;&gt;sellerID: 820&lt;/p&gt;&lt;p style=&quot;margin:0px;margin-left:4px;&quot;&gt;email: pavank@gmail.com&lt;/p&gt;&lt;p style=&quot;margin:0px;margin-left:4px;&quot;&gt;password: ********&lt;/p&gt;&lt;p style=&quot;margin:0px;margin-left:4px;&quot;&gt;fullName: &quot; Pavan Kumar&quot;&lt;br&gt;&lt;/p&gt;&lt;hr size=&quot;1&quot;&gt;&lt;p style=&quot;margin:0px;margin-left:4px;&quot;&gt;+ Register()&lt;/p&gt;&lt;p style=&quot;margin:0px;margin-left:4px;&quot;&gt;+login ()&lt;/p&gt;&lt;p style=&quot;margin:0px;margin-left:4px;&quot;&gt;+ Create Auction()&lt;/p&gt;&lt;p style=&quot;margin:0px;margin-left:4px;&quot;&gt;+BrowseCatalog()&lt;/p&gt;&lt;p style=&quot;margin:0px;margin-left:4px;&quot;&gt;+Manage Auction()&lt;/p&gt;&lt;p style=&quot;margin:0px;margin-left:4px;&quot;&gt;&lt;br&gt;&lt;/p&gt;" style="verticalAlign=top;align=left;overflow=fill;fontSize=12;fontFamily=Helvetica;html=1;whiteSpace=wrap;" vertex="1" parent="1">
          <mxGeometry x="262.5" y="1150" width="150" height="200" as="geometry" />
        </mxCell>
        <mxCell id="zVQwK2bRlb4D7HLoGmaH-35" value="&lt;p style=&quot;margin:0px;margin-top:4px;text-align:center;&quot;&gt;&lt;b&gt;Product1&lt;/b&gt;&lt;/p&gt;&lt;hr size=&quot;1&quot;&gt;&lt;p style=&quot;margin:0px;margin-left:4px;&quot;&gt;ProductID: 310&lt;/p&gt;&lt;p style=&quot;margin:0px;margin-left:4px;&quot;&gt;&amp;nbsp;name: Apple Watch&lt;/p&gt;&lt;p style=&quot;margin:0px;margin-left:4px;&quot;&gt;&amp;nbsp;Description: &quot;Golden&quot;&lt;/p&gt;&lt;p style=&quot;margin:0px;margin-left:4px;&quot;&gt;&amp;nbsp;startingBid: $150&lt;/p&gt;&lt;p style=&quot;margin:0px;margin-left:4px;&quot;&gt;&amp;nbsp;endDate: 10/18/2023&lt;/p&gt;&lt;p style=&quot;margin:0px;margin-left:4px;&quot;&gt;&amp;nbsp;seller: Pavan Kumar&lt;/p&gt;&lt;p style=&quot;margin:0px;margin-left:4px;&quot;&gt;&lt;br&gt;&lt;/p&gt;&lt;p style=&quot;margin:0px;margin-left:4px;&quot;&gt;&lt;br&gt;&lt;/p&gt;&lt;hr size=&quot;1&quot;&gt;&lt;p style=&quot;margin:0px;margin-left:4px;&quot;&gt;+ method(): Type&lt;/p&gt;" style="verticalAlign=top;align=left;overflow=fill;fontSize=12;fontFamily=Helvetica;html=1;whiteSpace=wrap;" vertex="1" parent="1">
          <mxGeometry x="472.5" y="1160" width="130" height="140" as="geometry" />
        </mxCell>
        <mxCell id="zVQwK2bRlb4D7HLoGmaH-36" value="&lt;p style=&quot;margin:0px;margin-top:4px;text-align:center;&quot;&gt;&lt;i&gt;Buyer&lt;/i&gt;&lt;/p&gt;&lt;hr size=&quot;1&quot;&gt;&lt;p style=&quot;margin:0px;margin-left:4px;&quot;&gt;buyerID: 251&lt;/p&gt;&lt;p style=&quot;margin:0px;margin-left:4px;&quot;&gt;email: calebck@yahoo.com&lt;/p&gt;&lt;p style=&quot;margin:0px;margin-left:4px;&quot;&gt;password: ***********&lt;/p&gt;&lt;p style=&quot;margin:0px;margin-left:4px;&quot;&gt;fullName: Caleb Cheruiyot&lt;br&gt;&lt;/p&gt;&lt;hr size=&quot;1&quot;&gt;&lt;p style=&quot;margin:0px;margin-left:4px;&quot;&gt;+ Register()&lt;/p&gt;&lt;p style=&quot;margin:0px;margin-left:4px;&quot;&gt;+login ()&lt;/p&gt;&lt;p style=&quot;margin:0px;margin-left:4px;&quot;&gt;+ PlaceBidAuction()&lt;/p&gt;&lt;p style=&quot;margin:0px;margin-left:4px;&quot;&gt;+BrowseCatalog()&lt;/p&gt;&lt;p style=&quot;margin:0px;margin-left:4px;&quot;&gt;+MakePayement()&lt;/p&gt;&lt;p style=&quot;margin:0px;margin-left:4px;&quot;&gt;&lt;br&gt;&lt;/p&gt;" style="verticalAlign=top;align=left;overflow=fill;fontSize=12;fontFamily=Helvetica;html=1;whiteSpace=wrap;" vertex="1" parent="1">
          <mxGeometry x="257.5" y="1420" width="160" height="180" as="geometry" />
        </mxCell>
        <mxCell id="zVQwK2bRlb4D7HLoGmaH-37" value="&lt;p style=&quot;margin:0px;margin-top:4px;text-align:center;&quot;&gt;&lt;i&gt;Admin1&lt;/i&gt;&lt;/p&gt;&lt;hr size=&quot;1&quot;&gt;&lt;p style=&quot;margin:0px;margin-left:4px;&quot;&gt;AdminID: 505&lt;/p&gt;&lt;p style=&quot;margin:0px;margin-left:4px;&quot;&gt;email: Admin1@gmail.com&lt;/p&gt;&lt;p style=&quot;margin:0px;margin-left:4px;&quot;&gt;password: *********&lt;/p&gt;&lt;p style=&quot;margin:0px;margin-left:4px;&quot;&gt;fullName: Mounica Mannam&lt;br&gt;&lt;/p&gt;&lt;hr size=&quot;1&quot;&gt;&lt;p style=&quot;margin:0px;margin-left:4px;&quot;&gt;+ Register()&lt;/p&gt;&lt;p style=&quot;margin:0px;margin-left:4px;&quot;&gt;+login ()&lt;/p&gt;&lt;p style=&quot;margin:0px;margin-left:4px;&quot;&gt;+ Manage Auctions&lt;span style=&quot;background-color: initial;&quot;&gt;()&lt;/span&gt;&lt;/p&gt;&lt;p style=&quot;margin:0px;margin-left:4px;&quot;&gt;&lt;span style=&quot;background-color: initial;&quot;&gt;+ View customer Details&lt;/span&gt;&lt;/p&gt;&lt;p style=&quot;margin:0px;margin-left:4px;&quot;&gt;&lt;span style=&quot;background-color: initial;&quot;&gt;View products Details&lt;/span&gt;&lt;/p&gt;&lt;p style=&quot;margin:0px;margin-left:4px;&quot;&gt;&lt;span style=&quot;background-color: initial;&quot;&gt;+ View bidding details&lt;/span&gt;&lt;/p&gt;&lt;p style=&quot;margin:0px;margin-left:4px;&quot;&gt;&lt;br&gt;&lt;/p&gt;" style="verticalAlign=top;align=left;overflow=fill;fontSize=12;fontFamily=Helvetica;html=1;whiteSpace=wrap;" vertex="1" parent="1">
          <mxGeometry x="22.5" y="1150" width="180" height="200" as="geometry" />
        </mxCell>
        <mxCell id="zVQwK2bRlb4D7HLoGmaH-38" value="" style="endArrow=none;html=1;rounded=0;" edge="1" parent="1">
          <mxGeometry relative="1" as="geometry">
            <mxPoint x="202.5" y="1249.5" as="sourcePoint" />
            <mxPoint x="262.5" y="1250" as="targetPoint" />
            <Array as="points">
              <mxPoint x="232.5" y="1249.5" />
            </Array>
          </mxGeometry>
        </mxCell>
        <mxCell id="zVQwK2bRlb4D7HLoGmaH-39" value="1" style="resizable=0;html=1;whiteSpace=wrap;align=left;verticalAlign=bottom;" connectable="0" vertex="1" parent="zVQwK2bRlb4D7HLoGmaH-38">
          <mxGeometry x="-1" relative="1" as="geometry" />
        </mxCell>
        <mxCell id="zVQwK2bRlb4D7HLoGmaH-40" value="1..*" style="resizable=0;html=1;whiteSpace=wrap;align=right;verticalAlign=bottom;" connectable="0" vertex="1" parent="zVQwK2bRlb4D7HLoGmaH-38">
          <mxGeometry x="1" relative="1" as="geometry" />
        </mxCell>
        <mxCell id="zVQwK2bRlb4D7HLoGmaH-41" value="" style="endArrow=none;html=1;rounded=0;exitX=1;exitY=0.45;exitDx=0;exitDy=0;exitPerimeter=0;" edge="1" parent="1" source="zVQwK2bRlb4D7HLoGmaH-34">
          <mxGeometry relative="1" as="geometry">
            <mxPoint x="422.5" y="1240" as="sourcePoint" />
            <mxPoint x="472.5" y="1240" as="targetPoint" />
            <Array as="points" />
          </mxGeometry>
        </mxCell>
        <mxCell id="zVQwK2bRlb4D7HLoGmaH-42" value="1" style="resizable=0;html=1;whiteSpace=wrap;align=left;verticalAlign=bottom;" connectable="0" vertex="1" parent="zVQwK2bRlb4D7HLoGmaH-41">
          <mxGeometry x="-1" relative="1" as="geometry">
            <mxPoint as="offset" />
          </mxGeometry>
        </mxCell>
        <mxCell id="zVQwK2bRlb4D7HLoGmaH-43" value="1..*" style="resizable=0;html=1;whiteSpace=wrap;align=right;verticalAlign=bottom;" connectable="0" vertex="1" parent="zVQwK2bRlb4D7HLoGmaH-41">
          <mxGeometry x="1" relative="1" as="geometry">
            <mxPoint as="offset" />
          </mxGeometry>
        </mxCell>
        <mxCell id="zVQwK2bRlb4D7HLoGmaH-44" value="" style="endArrow=none;html=1;rounded=0;exitX=0.667;exitY=1;exitDx=0;exitDy=0;exitPerimeter=0;" edge="1" parent="1" source="zVQwK2bRlb4D7HLoGmaH-37" target="zVQwK2bRlb4D7HLoGmaH-36">
          <mxGeometry relative="1" as="geometry">
            <mxPoint x="282.5" y="1390.0012060958563" as="sourcePoint" />
            <mxPoint x="302.5" y="1441" as="targetPoint" />
            <Array as="points" />
          </mxGeometry>
        </mxCell>
        <mxCell id="zVQwK2bRlb4D7HLoGmaH-45" value="&lt;p style=&quot;margin:0px;margin-top:4px;text-align:center;&quot;&gt;&lt;b&gt;Payment&lt;/b&gt;&lt;/p&gt;&lt;hr size=&quot;1&quot;&gt;&lt;p style=&quot;margin:0px;margin-left:4px;&quot;&gt;&amp;nbsp;paymentID: 4285&lt;/p&gt;&lt;p style=&quot;margin:0px;margin-left:4px;&quot;&gt;Amount: $300&lt;/p&gt;&lt;p style=&quot;margin:0px;margin-left:4px;&quot;&gt;status: &quot;Paid&quot;&lt;/p&gt;&lt;p style=&quot;margin:0px;margin-left:4px;&quot;&gt;&lt;br&gt;&lt;/p&gt;&lt;p style=&quot;margin:0px;margin-left:4px;&quot;&gt;&lt;br&gt;&lt;/p&gt;&lt;p style=&quot;margin:0px;margin-left:4px;&quot;&gt;+ processPayment()&lt;/p&gt;&lt;hr size=&quot;1&quot;&gt;&lt;p style=&quot;margin:0px;margin-left:4px;&quot;&gt;&lt;br&gt;&lt;/p&gt;" style="verticalAlign=top;align=left;overflow=fill;fontSize=12;fontFamily=Helvetica;html=1;whiteSpace=wrap;" vertex="1" parent="1">
          <mxGeometry x="642.5" y="1166.25" width="120" height="127.5" as="geometry" />
        </mxCell>
        <mxCell id="zVQwK2bRlb4D7HLoGmaH-46" value="1..*" style="resizable=0;html=1;whiteSpace=wrap;align=right;verticalAlign=bottom;" connectable="0" vertex="1" parent="1">
          <mxGeometry x="252.5" y="1420" as="geometry" />
        </mxCell>
        <mxCell id="zVQwK2bRlb4D7HLoGmaH-47" value="1" style="resizable=0;html=1;whiteSpace=wrap;align=left;verticalAlign=bottom;" connectable="0" vertex="1" parent="1">
          <mxGeometry x="162.5" y="1370" as="geometry" />
        </mxCell>
        <mxCell id="zVQwK2bRlb4D7HLoGmaH-48" value="" style="endArrow=none;html=1;rounded=0;" edge="1" parent="1">
          <mxGeometry relative="1" as="geometry">
            <mxPoint x="602.5" y="1240" as="sourcePoint" />
            <mxPoint x="642.5" y="1240" as="targetPoint" />
            <Array as="points" />
          </mxGeometry>
        </mxCell>
        <mxCell id="zVQwK2bRlb4D7HLoGmaH-49" value="1" style="resizable=0;html=1;whiteSpace=wrap;align=left;verticalAlign=bottom;" connectable="0" vertex="1" parent="zVQwK2bRlb4D7HLoGmaH-48">
          <mxGeometry x="-1" relative="1" as="geometry">
            <mxPoint as="offset" />
          </mxGeometry>
        </mxCell>
        <mxCell id="zVQwK2bRlb4D7HLoGmaH-50" value="1" style="resizable=0;html=1;whiteSpace=wrap;align=left;verticalAlign=bottom;" connectable="0" vertex="1" parent="1">
          <mxGeometry x="632.5" y="1240" as="geometry" />
        </mxCell>
        <mxCell id="zVQwK2bRlb4D7HLoGmaH-51" value="" style="line;strokeWidth=1;fillColor=none;align=left;verticalAlign=middle;spacingTop=-1;spacingLeft=3;spacingRight=3;rotatable=0;labelPosition=right;points=[];portConstraint=eastwest;strokeColor=inherit;" vertex="1" parent="1">
          <mxGeometry x="642.5" y="1250" width="120" height="10" as="geometry" />
        </mxCell>
        <mxCell id="zVQwK2bRlb4D7HLoGmaH-52" value="" style="endArrow=none;html=1;rounded=0;entryX=-0.013;entryY=0.901;entryDx=0;entryDy=0;entryPerimeter=0;exitX=1;exitY=0.25;exitDx=0;exitDy=0;" edge="1" parent="1" source="zVQwK2bRlb4D7HLoGmaH-36" target="zVQwK2bRlb4D7HLoGmaH-35">
          <mxGeometry relative="1" as="geometry">
            <mxPoint x="417.5" y="1450" as="sourcePoint" />
            <mxPoint x="487.5" y="1450" as="targetPoint" />
            <Array as="points" />
          </mxGeometry>
        </mxCell>
        <mxCell id="zVQwK2bRlb4D7HLoGmaH-53" value="1" style="resizable=0;html=1;whiteSpace=wrap;align=left;verticalAlign=bottom;" connectable="0" vertex="1" parent="zVQwK2bRlb4D7HLoGmaH-52">
          <mxGeometry x="-1" relative="1" as="geometry">
            <mxPoint x="5" y="-45" as="offset" />
          </mxGeometry>
        </mxCell>
        <mxCell id="zVQwK2bRlb4D7HLoGmaH-54" value="1..*" style="resizable=0;html=1;whiteSpace=wrap;align=right;verticalAlign=bottom;" connectable="0" vertex="1" parent="zVQwK2bRlb4D7HLoGmaH-52">
          <mxGeometry x="1" relative="1" as="geometry">
            <mxPoint x="-8" y="24" as="offset" />
          </mxGeometry>
        </mxCell>
        <mxCell id="zVQwK2bRlb4D7HLoGmaH-55" value="&lt;p style=&quot;margin:0px;margin-top:4px;text-align:center;&quot;&gt;&lt;b&gt;Product2&lt;/b&gt;&lt;/p&gt;&lt;hr size=&quot;1&quot;&gt;&lt;p style=&quot;margin:0px;margin-left:4px;&quot;&gt;--&lt;/p&gt;&lt;p style=&quot;margin:0px;margin-left:4px;&quot;&gt;&lt;br&gt;&lt;/p&gt;&lt;p style=&quot;margin:0px;margin-left:4px;&quot;&gt;&lt;br&gt;&lt;/p&gt;" style="verticalAlign=top;align=left;overflow=fill;fontSize=12;fontFamily=Helvetica;html=1;whiteSpace=wrap;" vertex="1" parent="1">
          <mxGeometry x="472.5" y="1310" width="130" height="60" as="geometry" />
        </mxCell>
        <mxCell id="zVQwK2bRlb4D7HLoGmaH-56" value="Object Diagram&amp;nbsp;" style="text;html=1;strokeColor=none;fillColor=none;align=center;verticalAlign=middle;whiteSpace=wrap;rounded=0;fontStyle=1" vertex="1" parent="1">
          <mxGeometry x="10" y="1100" width="242.5" height="50" as="geometry" />
        </mxCell>
        <mxCell id="zVQwK2bRlb4D7HLoGmaH-57" value="Class Diagram&amp;nbsp;" style="text;html=1;strokeColor=none;fillColor=none;align=center;verticalAlign=middle;whiteSpace=wrap;rounded=0;fontStyle=1" vertex="1" parent="1">
          <mxGeometry x="45" y="500" width="242.5" height="50" as="geometry" />
        </mxCell>
        <mxCell id="zVQwK2bRlb4D7HLoGmaH-58" value="Admin Use Case Diagram" style="text;html=1;strokeColor=none;fillColor=none;align=center;verticalAlign=middle;whiteSpace=wrap;rounded=0;fontStyle=1" vertex="1" parent="1">
          <mxGeometry x="131.25" y="-10" width="242.5" height="50" as="geometry" />
        </mxCell>
      </root>
    </mxGraphModel>
  </diagram>
</mxfile>
